<svg width="16" height="16" viewBox="0 0 16 16" fill="none" xmlns="http://www.w3.org/2000/svg">
<g clip-path="url(#clip0_1_297)">
<path d="M16.0002 2.66687H4.66687V4.0002H16.0002V2.66687Z" fill="#7F858D"/>
<path d="M16.0002 7.33313H4.66687V8.66647H16.0002V7.33313Z" fill="#7F858D"/>
<path d="M16.0002 12H4.66687V13.3333H16.0002V12Z" fill="#7F858D"/>
<path d="M1.33333 4.66666C2.06971 4.66666 2.66667 4.06971 2.66667 3.33333C2.66667 2.59695 2.06971 2 1.33333 2C0.596954 2 0 2.59695 0 3.33333C0 4.06971 0.596954 4.66666 1.33333 4.66666Z" fill="#7F858D"/>
<path d="M1.33333 9.33353C2.06971 9.33353 2.66667 8.73658 2.66667 8.0002C2.66667 7.26382 2.06971 6.66687 1.33333 6.66687C0.596954 6.66687 0 7.26382 0 8.0002C0 8.73658 0.596954 9.33353 1.33333 9.33353Z" fill="#7F858D"/>
<path d="M1.33333 13.9998C2.06971 13.9998 2.66667 13.4028 2.66667 12.6665C2.66667 11.9301 2.06971 11.3331 1.33333 11.3331C0.596954 11.3331 0 11.9301 0 12.6665C0 13.4028 0.596954 13.9998 1.33333 13.9998Z" fill="#7F858D"/>
</g>
<defs>
<clipPath id="clip0_1_297">
<rect width="16" height="16" fill="white"/>
</clipPath>
</defs>
</svg>
