<svg width="16" height="16" viewBox="0 0 16 16" fill="none" xmlns="http://www.w3.org/2000/svg">
<g clip-path="url(#clip0_1_216)">
<path d="M13.8154 14.9552C14.43 14.9441 14.9365 14.7368 15.3369 14.3341C15.6875 13.9814 15.8889 13.5546 15.9414 13.0528L15.9551 12.8321V4.16708C15.9438 3.5689 15.7376 3.06922 15.3369 2.66611C14.9365 2.26336 14.43 2.0561 13.8154 2.04501H2.18457C1.56996 2.0561 1.0635 2.26336 0.663086 2.66611C0.262316 3.06933 0.0560891 3.56965 0.0449219 4.16806V12.8321C0.0560891 13.4305 0.262316 13.9308 0.663086 14.3341C1.01349 14.6865 1.44488 14.8889 1.95898 14.9415L2.18457 14.9552H13.8154ZM7.97461 8.38486L1.50977 3.88193L1.47852 3.86044L1.49414 3.82626C1.55463 3.69425 1.64592 3.59116 1.76758 3.51865C1.88789 3.44701 2.02586 3.40542 2.17969 3.39365H13.8203C13.9741 3.40542 14.1121 3.44701 14.2324 3.51865C14.3541 3.59116 14.4454 3.69425 14.5059 3.82626L14.5215 3.86044L14.4902 3.88193L8.02539 8.38486L8 8.40244L7.97461 8.38486ZM2.18066 13.6065C1.9659 13.5947 1.78204 13.5172 1.63184 13.3741C1.48043 13.2299 1.40527 13.0481 1.40527 12.8331V5.46884L1.47559 5.51767L7.61621 9.78329L7.61523 9.78427C7.73278 9.85819 7.86119 9.89365 8 9.89365C8.13854 9.89365 8.26643 9.85789 8.38379 9.78427V9.78329L14.5244 5.51767L14.5947 5.46884V12.8331C14.5947 13.0481 14.5196 13.2299 14.3682 13.3741C14.218 13.5172 14.0341 13.5947 13.8193 13.6065H2.18066Z" fill="#7F858D" stroke="white" stroke-width="0.09"/>
</g>
<defs>
<clipPath id="clip0_1_216">
<rect width="16" height="16" fill="white"/>
</clipPath>
</defs>
</svg>
